<svg width="256" height="298" viewBox="0 0 256 298" fill="none" xmlns="http://www.w3.org/2000/svg" role="img" aria-label="Igor Freitas">
  <defs>
    <linearGradient id="ifSilver" x1="0" y1="0" x2="0" y2="1">
      <stop offset="0" stop-color="#cfcfcf"/>
      <stop offset="0.22" stop-color="#f2f2f2"/>
      <stop offset="0.5" stop-color="#8d8d8d"/>
      <stop offset="0.72" stop-color="#a6a6a6"/>
      <stop offset="1" stop-color="#dcdcdc"/>
    </linearGradient>
  </defs>
  <g fill="url(#ifSilver)">
    <!-- Column capital -->
    <rect x="40" y="58" width="112" height="12"/>
    <rect x="46" y="72" width="100" height="5"/>
    <!-- Reeded shaft -->
    <rect x="50" y="81" width="15" height="138"/>
    <rect x="69" y="81" width="15" height="138"/>
    <rect x="88" y="81" width="15" height="138"/>
    <rect x="107" y="81" width="15" height="138"/>
    <rect x="126" y="81" width="15" height="138"/>
    <!-- Column base -->
    <rect x="46" y="223" width="100" height="5"/>
    <rect x="40" y="228" width="112" height="12"/>
    <!-- F stem (overlaps column right edge) -->
    <rect x="140" y="44" width="24" height="210"/>
    <!-- F top arm -->
    <rect x="140" y="44" width="76" height="20"/>
    <!-- F middle arm -->
    <rect x="140" y="138" width="58" height="18"/>
    <!-- F serifs -->
    <rect x="134" y="44" width="36" height="6"/>
    <rect x="210" y="44" width="6" height="24"/>
    <rect x="132" y="246" width="40" height="8"/>
  </g>
</svg>
